<?xml version="1.0" encoding="UTF-8" ?>
<!DOCTYPE svg PUBLIC "-//W3C//DTD SVG 1.1//EN" "http://www.w3.org/Graphics/SVG/1.1/DTD/svg11.dtd">
<svg width="200pt" height="200pt" viewBox="0 0 200 200" version="1.1" xmlns="http://www.w3.org/2000/svg">
<g id="#ffffffff">
<path fill="#ffffff" opacity="1.00" d=" M 0.00 0.00 L 200.00 0.00 L 200.00 200.00 L 0.00 200.00 L 0.00 0.00 M 95.17 10.32 C 67.29 11.64 40.63 26.95 25.25 50.19 C 13.47 67.59 8.21 89.22 10.53 110.09 C 12.72 131.16 22.72 151.30 38.15 165.82 C 52.20 179.22 70.70 187.88 90.02 189.99 C 107.41 191.96 125.37 188.80 140.97 180.83 C 160.28 171.10 175.82 154.16 183.86 134.09 C 192.09 113.85 192.54 90.60 185.15 70.05 C 178.52 51.31 165.43 34.96 148.66 24.31 C 132.89 14.15 113.88 9.24 95.17 10.32 Z" />
<path fill="#ffffff" opacity="1.00" d=" M 86.47 22.65 C 101.45 20.04 117.21 21.75 131.18 27.81 C 148.73 35.26 163.32 49.34 171.49 66.55 C 178.81 81.83 180.93 99.52 177.53 116.11 C 173.90 134.17 163.65 150.79 149.19 162.19 C 137.98 171.12 124.31 176.92 110.09 178.67 C 92.78 180.90 74.76 177.16 59.81 168.15 C 44.20 158.87 31.96 144.06 25.88 126.93 C 19.59 109.51 19.75 89.86 26.34 72.55 C 35.81 46.90 59.49 27.19 86.47 22.65 M 80.66 63.68 C 75.30 69.20 73.45 77.13 73.36 84.60 C 75.95 84.61 78.54 84.61 81.12 84.61 C 81.13 79.31 82.12 73.77 85.38 69.44 C 92.03 60.23 107.42 59.65 114.82 68.25 C 119.37 73.44 119.79 81.47 116.44 87.38 C 112.26 95.22 103.51 99.30 99.39 107.19 C 96.69 112.14 96.38 117.91 96.41 123.42 C 99.00 123.42 101.60 123.42 104.20 123.42 C 104.42 119.47 104.25 115.43 105.38 111.60 C 106.59 107.55 110.14 104.97 112.97 102.08 C 117.69 97.39 122.92 92.67 125.22 86.24 C 127.27 79.65 126.83 71.98 122.94 66.13 C 119.39 60.75 113.41 57.24 107.11 56.16 C 97.82 54.51 87.32 56.64 80.66 63.68 M 95.24 132.42 C 95.22 136.77 95.24 141.12 95.22 145.47 C 98.67 145.49 102.12 145.49 105.57 145.49 C 105.59 141.13 105.57 136.77 105.59 132.41 C 102.14 132.42 98.69 132.42 95.24 132.42 Z" />
</g>
<g id="#000000ff">
<path fill="#000000" opacity="1.00" d=" M 95.17 10.32 C 113.88 9.24 132.89 14.15 148.66 24.31 C 165.43 34.96 178.52 51.31 185.15 70.05 C 192.54 90.60 192.09 113.85 183.86 134.09 C 175.82 154.16 160.28 171.10 140.97 180.83 C 125.37 188.80 107.41 191.96 90.02 189.99 C 70.70 187.88 52.20 179.22 38.15 165.82 C 22.72 151.30 12.72 131.16 10.53 110.09 C 8.21 89.22 13.47 67.59 25.25 50.19 C 40.63 26.95 67.29 11.64 95.17 10.32 M 86.47 22.65 C 59.49 27.19 35.81 46.90 26.34 72.55 C 19.75 89.86 19.59 109.51 25.88 126.93 C 31.96 144.06 44.20 158.87 59.81 168.15 C 74.76 177.16 92.78 180.90 110.09 178.67 C 124.31 176.92 137.98 171.12 149.19 162.19 C 163.65 150.79 173.90 134.17 177.53 116.11 C 180.93 99.52 178.81 81.83 171.49 66.55 C 163.32 49.34 148.73 35.26 131.18 27.81 C 117.21 21.75 101.45 20.04 86.47 22.65 Z" />
<path fill="#000000" opacity="1.00" d=" M 80.66 63.68 C 87.32 56.64 97.82 54.51 107.11 56.16 C 113.41 57.24 119.39 60.75 122.94 66.13 C 126.83 71.98 127.27 79.65 125.22 86.24 C 122.92 92.67 117.69 97.39 112.97 102.08 C 110.14 104.97 106.59 107.55 105.38 111.60 C 104.25 115.43 104.42 119.47 104.20 123.42 C 101.60 123.42 99.00 123.42 96.41 123.42 C 96.38 117.91 96.69 112.14 99.39 107.19 C 103.51 99.30 112.26 95.22 116.44 87.38 C 119.79 81.47 119.37 73.44 114.82 68.25 C 107.42 59.65 92.03 60.23 85.38 69.44 C 82.12 73.77 81.13 79.31 81.12 84.61 C 78.54 84.61 75.95 84.61 73.36 84.60 C 73.45 77.13 75.30 69.20 80.66 63.68 Z" />
<path fill="#000000" opacity="1.00" d=" M 95.24 132.42 C 98.69 132.42 102.14 132.42 105.59 132.41 C 105.57 136.77 105.59 141.13 105.57 145.49 C 102.12 145.49 98.67 145.49 95.22 145.47 C 95.24 141.12 95.22 136.77 95.24 132.42 Z" />
</g>
</svg>
