<?xml version="1.0" encoding="UTF-8" ?>
<!DOCTYPE svg PUBLIC "-//W3C//DTD SVG 1.1//EN" "http://www.w3.org/Graphics/SVG/1.1/DTD/svg11.dtd">
<svg width="96pt" height="96pt" viewBox="0 0 96 96" version="1.1" xmlns="http://www.w3.org/2000/svg">
<g id="#727d86ff">
<path fill="#727d86" opacity="1.00" d=" M 21.58 19.59 C 28.04 12.52 37.44 8.24 47.03 8.04 C 55.85 7.77 64.74 10.88 71.41 16.69 C 79.30 23.36 83.99 33.58 83.98 43.91 C 84.01 56.30 83.82 68.68 84.00 81.06 C 84.45 84.54 81.62 88.08 78.03 87.97 C 69.95 88.03 61.86 88.02 53.78 87.96 C 53.84 86.65 53.84 85.34 53.77 84.03 C 62.13 83.85 70.52 84.24 78.88 83.84 C 80.81 82.54 79.73 79.84 79.99 77.90 C 79.82 69.27 80.04 60.63 80.00 52.00 C 80.11 44.59 80.33 36.80 76.76 30.05 C 73.41 23.12 67.49 17.45 60.36 14.52 C 52.50 11.38 43.47 11.38 35.61 14.53 C 28.51 17.47 22.58 23.12 19.25 30.04 C 15.64 36.78 15.90 44.59 16.00 52.00 C 15.89 60.58 16.33 69.18 15.90 77.75 C 14.38 76.13 11.89 74.72 12.11 72.16 C 12.13 62.76 11.96 53.36 12.02 43.97 C 12.00 35.02 15.47 26.13 21.58 19.59 Z" />
<path fill="#727d86" opacity="1.00" d=" M 20.00 52.00 C 23.35 52.27 28.51 50.69 29.88 54.97 C 30.08 61.65 30.10 68.37 29.87 75.05 C 28.44 79.26 23.32 77.79 19.97 77.95 C 19.87 69.30 20.04 60.65 20.00 52.00 Z" />
<path fill="#727d86" opacity="1.00" d=" M 66.12 54.94 C 67.57 50.73 72.63 52.25 76.00 52.00 C 75.96 60.65 76.13 69.31 76.03 77.96 C 72.70 77.78 67.55 79.26 66.14 75.10 C 65.89 68.39 65.93 61.64 66.12 54.94 Z" />
</g>
<g id="#2d7bd4ff">
<path fill="#2d7bd4" opacity="1.00" d=" M 35.61 14.53 C 43.47 11.38 52.50 11.38 60.36 14.52 C 67.49 17.45 73.41 23.12 76.76 30.05 C 72.92 29.80 70.23 26.97 67.46 24.67 C 56.30 15.70 39.01 15.86 28.04 25.07 C 25.50 27.33 22.83 29.79 19.25 30.04 C 22.58 23.12 28.51 17.47 35.61 14.53 Z" />
</g>
<g id="#2bb3ebff">
<path fill="#2bb3eb" opacity="1.00" d=" M 16.00 52.00 C 17.33 52.00 18.67 52.00 20.00 52.00 C 20.04 60.65 19.87 69.30 19.97 77.95 C 18.61 77.93 17.25 77.92 15.89 77.92 L 15.90 77.75 C 16.33 69.18 15.89 60.58 16.00 52.00 Z" />
<path fill="#2bb3eb" opacity="1.00" d=" M 76.00 52.00 C 77.33 52.00 78.66 52.00 80.00 52.00 C 80.04 60.63 79.82 69.27 79.99 77.90 C 78.67 77.92 77.35 77.93 76.03 77.96 C 76.13 69.31 75.96 60.65 76.00 52.00 Z" />
</g>
<g id="#1291deff">
<path fill="#1291de" opacity="1.00" d=" M 44.99 80.78 C 48.15 78.75 52.49 80.65 53.77 84.03 C 53.84 85.34 53.84 86.65 53.78 87.96 C 52.46 91.30 48.20 93.15 45.02 91.20 C 41.03 89.18 41.00 82.81 44.99 80.78 Z" />
</g>
</svg>
