<?xml version="1.0" encoding="UTF-8" ?>
<!DOCTYPE svg PUBLIC "-//W3C//DTD SVG 1.1//EN" "http://www.w3.org/Graphics/SVG/1.1/DTD/svg11.dtd">
<svg width="96pt" height="96pt" viewBox="0 0 96 96" version="1.1" xmlns="http://www.w3.org/2000/svg">
<g id="#bbdefbff">
<path fill="#bbdefb" opacity="1.00" d=" M 37.03 13.16 C 43.20 9.05 51.91 8.92 58.26 12.69 C 64.50 16.60 65.99 24.29 68.70 30.59 C 69.83 33.64 73.35 34.39 75.51 36.51 C 81.39 41.92 83.49 50.15 84.05 57.86 C 81.26 58.18 78.51 58.91 76.14 60.47 C 74.17 54.38 71.42 48.47 67.01 43.74 C 69.01 50.46 71.73 57.09 71.90 64.20 C 69.99 68.09 68.25 72.25 64.41 74.66 C 63.10 66.75 62.03 58.55 58.07 51.43 C 58.77 59.62 60.70 67.77 59.72 76.03 C 56.49 79.44 53.44 84.29 48.07 83.99 C 42.49 84.42 39.56 79.22 36.04 75.94 C 35.00 67.43 36.97 59.02 37.93 50.62 C 33.96 58.02 32.50 66.40 31.44 74.64 C 27.84 72.09 25.85 68.17 24.19 64.21 C 23.58 57.33 26.78 51.02 28.29 44.48 C 23.95 48.84 21.59 54.60 19.59 60.31 C 17.29 58.85 14.63 58.18 11.95 57.85 C 12.50 50.15 14.60 41.91 20.49 36.51 C 22.66 34.41 26.16 33.63 27.30 30.57 C 29.93 24.51 31.32 17.24 37.03 13.16 M 38.38 26.42 C 34.95 28.40 35.24 34.56 39.10 35.87 C 42.34 36.73 44.56 32.81 43.92 30.01 C 43.70 27.47 40.90 24.94 38.38 26.42 M 50.40 26.41 C 46.24 28.55 47.77 36.88 52.90 35.87 C 58.21 34.35 56.13 24.00 50.40 26.41 Z" />
</g>
<g id="#455a64ff">
<path fill="#455a64" opacity="1.00" d=" M 38.38 26.42 C 40.90 24.94 43.70 27.47 43.92 30.01 C 44.56 32.81 42.34 36.73 39.10 35.87 C 35.24 34.56 34.95 28.40 38.38 26.42 Z" />
<path fill="#455a64" opacity="1.00" d=" M 50.40 26.41 C 56.13 24.00 58.21 34.35 52.90 35.87 C 47.77 36.88 46.24 28.55 50.40 26.41 Z" />
</g>
<g id="#90caf9ff">
<path fill="#90caf9" opacity="1.00" d=" M 67.01 43.74 C 71.42 48.47 74.17 54.38 76.14 60.47 C 74.76 61.76 73.37 63.02 71.90 64.20 C 71.73 57.09 69.01 50.46 67.01 43.74 Z" />
<path fill="#90caf9" opacity="1.00" d=" M 19.59 60.31 C 21.59 54.60 23.95 48.84 28.29 44.48 C 26.78 51.02 23.58 57.33 24.19 64.21 C 22.56 63.04 21.03 61.72 19.59 60.31 Z" />
<path fill="#90caf9" opacity="1.00" d=" M 31.44 74.64 C 32.50 66.40 33.96 58.02 37.93 50.62 C 36.97 59.02 35.00 67.43 36.04 75.94 C 34.44 75.78 32.91 75.26 31.44 74.64 Z" />
<path fill="#90caf9" opacity="1.00" d=" M 58.07 51.43 C 62.03 58.55 63.10 66.75 64.41 74.66 C 62.87 75.19 61.36 75.86 59.72 76.03 C 60.70 67.77 58.77 59.62 58.07 51.43 Z" />
</g>
</svg>
