<?xml version="1.0" encoding="UTF-8" ?>
<!DOCTYPE svg PUBLIC "-//W3C//DTD SVG 1.1//EN" "http://www.w3.org/Graphics/SVG/1.1/DTD/svg11.dtd">
<svg width="96pt" height="96pt" viewBox="0 0 96 96" version="1.1" xmlns="http://www.w3.org/2000/svg">
<g id="#ffc107ff">
<path fill="#ffc107" opacity="1.00" d=" M 46.38 16.35 C 48.33 15.42 50.76 16.44 51.66 18.36 C 62.24 36.83 72.82 55.31 83.33 73.82 C 85.09 76.27 83.09 80.11 80.05 79.95 C 58.65 80.03 37.25 80.05 15.86 79.94 C 12.77 80.05 10.89 76.07 12.75 73.67 C 22.99 55.63 33.35 37.66 43.59 19.62 C 44.36 18.43 44.98 16.94 46.38 16.35 M 44.17 36.01 C 44.46 44.01 44.73 52.00 45.02 60.00 C 47.00 60.00 48.98 60.00 50.96 60.00 C 51.24 52.00 51.52 44.01 51.81 36.01 C 49.26 36.00 46.71 35.99 44.17 36.01 M 45.34 65.38 C 43.48 66.79 43.52 70.11 45.62 71.30 C 48.09 73.16 52.44 71.29 52.00 67.97 C 51.88 64.79 47.62 63.52 45.34 65.38 Z" />
</g>
<g id="#5d4037ff">
<path fill="#5d4037" opacity="1.00" d=" M 44.17 36.01 C 46.71 35.99 49.26 36.00 51.81 36.01 C 51.52 44.01 51.24 52.00 50.96 60.00 C 48.98 60.00 47.00 60.00 45.02 60.00 C 44.73 52.00 44.46 44.01 44.17 36.01 Z" />
<path fill="#5d4037" opacity="1.00" d=" M 45.34 65.38 C 47.62 63.52 51.88 64.79 52.00 67.97 C 52.44 71.29 48.09 73.16 45.62 71.30 C 43.52 70.11 43.48 66.79 45.34 65.38 Z" />
</g>
</svg>
