<?xml version="1.0" encoding="UTF-8" ?>
<!DOCTYPE svg PUBLIC "-//W3C//DTD SVG 1.1//EN" "http://www.w3.org/Graphics/SVG/1.1/DTD/svg11.dtd">
<svg width="96pt" height="96pt" viewBox="0 0 96 96" version="1.1" xmlns="http://www.w3.org/2000/svg">
<g id="#00695cff">
<path fill="#00695c" opacity="1.00" d=" M 5.98 16.01 C 5.94 13.05 9.14 11.42 11.77 12.00 C 14.59 13.97 14.56 18.03 11.76 20.01 C 9.15 20.55 5.90 18.98 5.98 16.01 Z" />
</g>
<g id="#009688ff">
<path fill="#009688" opacity="1.00" d=" M 11.77 12.00 C 15.69 12.02 20.50 11.27 23.23 14.84 C 24.97 16.07 24.48 18.95 26.07 19.94 C 46.67 20.11 67.27 19.90 87.86 20.05 C 90.08 20.65 87.93 21.19 87.65 22.51 C 83.08 32.67 78.48 42.81 73.89 52.95 C 73.29 54.53 71.90 56.05 70.08 55.98 C 57.39 56.05 44.71 55.95 32.03 56.02 C 31.84 58.88 31.48 63.00 35.04 63.91 C 48.01 64.14 61.00 63.91 73.97 64.02 C 74.03 66.67 74.02 69.32 73.98 71.97 C 72.56 72.02 71.13 72.03 69.71 72.00 C 68.57 71.98 67.43 71.98 66.28 72.00 C 57.43 72.00 48.57 71.99 39.72 72.01 C 38.56 72.00 37.41 72.01 36.25 72.03 C 30.21 72.10 24.51 67.22 24.08 61.11 C 23.78 54.12 24.25 47.10 23.86 40.13 C 21.74 33.52 19.41 26.98 17.39 20.35 C 15.66 19.57 13.61 20.20 11.76 20.01 C 14.56 18.03 14.59 13.97 11.77 12.00 Z" />
</g>
<g id="#37474fff">
<path fill="#37474f" opacity="1.00" d=" M 36.25 72.03 C 37.41 72.01 38.56 72.00 39.72 72.01 C 46.04 74.03 44.78 84.15 38.00 84.01 C 31.24 84.16 29.94 74.06 36.25 72.03 M 37.27 76.14 C 34.71 76.76 36.33 81.14 38.73 79.86 C 41.27 79.19 39.67 74.87 37.27 76.14 Z" />
<path fill="#37474f" opacity="1.00" d=" M 66.28 72.00 C 67.43 71.98 68.57 71.98 69.71 72.00 C 76.03 74.03 74.79 84.14 68.00 84.01 C 61.21 84.15 59.95 74.03 66.28 72.00 M 67.27 76.14 C 64.73 76.76 66.32 81.12 68.74 79.88 C 71.25 79.21 69.68 74.87 67.27 76.14 Z" />
</g>
<g id="#5b7784ff">
<path fill="#5b7784" opacity="1.00" d=" M 37.27 76.14 C 39.67 74.87 41.27 79.19 38.73 79.86 C 36.33 81.14 34.71 76.76 37.27 76.14 Z" />
<path fill="#5b7784" opacity="1.00" d=" M 67.27 76.14 C 69.68 74.87 71.25 79.21 68.74 79.88 C 66.32 81.12 64.73 76.76 67.27 76.14 Z" />
</g>
</svg>
