<?xml version="1.0" encoding="UTF-8" ?>
<!DOCTYPE svg PUBLIC "-//W3C//DTD SVG 1.1//EN" "http://www.w3.org/Graphics/SVG/1.1/DTD/svg11.dtd">
<svg width="500pt" height="500pt" viewBox="0 0 500 500" version="1.1" xmlns="http://www.w3.org/2000/svg">
<g id="#000000ff">
<path fill="#000000" opacity="1.00" d=" M 267.55 84.54 C 289.76 63.21 321.39 52.12 352.06 55.20 C 375.84 57.46 398.25 68.70 415.56 84.97 C 433.47 81.11 450.94 74.89 466.98 66.00 C 470.43 64.16 473.91 61.41 478.07 62.11 C 483.81 62.73 488.04 69.02 486.33 74.56 C 482.87 86.11 476.52 96.54 469.42 106.18 C 475.32 104.59 481.42 103.74 487.13 101.50 C 492.52 99.41 498.51 103.22 500.00 108.55 L 500.00 113.17 C 498.73 116.61 496.40 119.47 494.31 122.43 C 482.21 139.14 467.29 153.65 450.98 166.21 C 452.69 216.09 440.25 266.09 417.46 310.36 C 390.32 363.18 346.89 407.89 293.61 434.51 C 248.25 457.52 196.66 467.08 146.01 464.58 C 95.81 462.08 46.39 446.03 4.22 418.69 C 2.02 417.30 0.81 414.90 0.00 412.51 L 0.00 408.75 C 1.01 404.18 5.18 400.33 10.01 400.60 C 16.68 401.07 23.33 401.83 30.02 401.83 C 64.76 402.55 99.54 393.13 129.34 375.32 C 97.30 366.58 69.53 342.78 57.13 311.83 C 55.33 307.02 52.22 301.41 55.26 296.43 C 57.38 292.34 62.22 291.03 66.51 291.46 C 38.39 272.20 19.76 239.31 19.40 205.03 C 18.78 200.35 20.43 194.98 25.03 192.95 C 30.84 189.97 36.38 194.75 41.85 196.24 C 31.97 182.68 24.70 167.08 21.69 150.52 C 17.14 125.54 22.04 98.92 35.17 77.18 C 38.58 71.52 47.45 71.43 51.31 76.64 C 64.33 92.54 79.16 106.95 95.50 119.42 C 135.63 150.25 184.67 168.98 234.99 173.75 C 234.07 168.21 233.43 162.59 233.94 156.96 C 235.35 129.70 247.69 103.25 267.55 84.54 M 309.84 80.76 C 292.95 87.32 278.24 99.27 268.30 114.41 C 255.70 133.39 250.88 157.42 255.49 179.75 C 256.06 182.72 257.05 185.86 255.94 188.83 C 254.62 192.97 250.35 195.84 246.02 195.59 C 220.34 194.36 194.84 189.53 170.46 181.37 C 123.17 165.63 80.41 137.12 46.88 100.33 C 43.85 108.25 41.28 116.42 40.41 124.89 C 37.39 155.32 51.98 186.59 76.94 204.18 C 79.77 206.09 82.91 208.25 83.68 211.82 C 85.43 217.53 80.87 224.03 74.91 224.31 C 63.58 224.45 52.55 221.32 41.89 217.81 C 44.29 231.51 49.69 244.72 57.89 255.97 C 70.05 272.88 88.47 285.24 108.86 289.64 C 112.40 290.21 115.84 292.27 117.27 295.69 C 119.67 300.60 117.02 307.08 111.92 308.99 C 101.82 312.14 91.17 313.03 80.64 313.17 C 93.88 337.78 118.93 356.12 146.92 359.33 C 152.04 360.37 158.22 358.71 162.39 362.64 C 166.64 366.35 166.68 373.71 162.34 377.37 C 130.29 402.94 90.13 417.51 49.39 420.61 C 88.24 438.44 131.37 446.78 174.06 444.70 C 223.74 442.84 273.20 427.64 314.11 399.13 C 344.82 377.90 370.76 349.93 390.06 318.01 C 418.34 271.42 433.49 216.54 430.95 161.96 C 430.74 158.26 433.00 154.96 435.98 152.99 C 445.76 145.82 454.79 137.65 463.06 128.79 C 453.43 131.40 444.13 135.42 434.16 136.63 C 430.05 137.39 425.65 135.23 423.72 131.53 C 421.16 127.01 422.89 120.73 427.45 118.21 C 437.71 112.14 446.63 103.93 453.74 94.38 C 441.57 99.21 429.02 103.09 416.17 105.61 C 412.67 106.44 408.93 105.09 406.54 102.47 C 396.47 91.85 383.78 83.72 369.87 79.15 C 350.48 72.70 328.85 73.29 309.84 80.76 Z" />
</g>
<g id="#ffffffff">
<path fill="#ffffff" opacity="1.00" d=" M 309.84 80.76 C 328.85 73.29 350.48 72.70 369.87 79.15 C 383.78 83.72 396.47 91.85 406.54 102.47 C 408.93 105.09 412.67 106.44 416.17 105.61 C 429.02 103.09 441.57 99.21 453.74 94.38 C 446.63 103.93 437.71 112.14 427.45 118.21 C 422.89 120.73 421.16 127.01 423.72 131.53 C 425.65 135.23 430.05 137.39 434.16 136.63 C 444.13 135.42 453.43 131.40 463.06 128.79 C 454.79 137.65 445.76 145.82 435.98 152.99 C 433.00 154.96 430.74 158.26 430.95 161.96 C 433.49 216.54 418.34 271.42 390.06 318.01 C 370.76 349.93 344.82 377.90 314.11 399.13 C 273.20 427.64 223.74 442.84 174.06 444.70 C 131.37 446.78 88.24 438.44 49.39 420.61 C 90.13 417.51 130.29 402.94 162.34 377.37 C 166.68 373.71 166.64 366.35 162.39 362.64 C 158.22 358.71 152.04 360.37 146.92 359.33 C 118.93 356.12 93.88 337.78 80.64 313.17 C 91.17 313.03 101.82 312.14 111.92 308.99 C 117.02 307.08 119.67 300.60 117.27 295.69 C 115.84 292.27 112.40 290.21 108.86 289.64 C 88.47 285.24 70.05 272.88 57.89 255.97 C 49.69 244.72 44.29 231.51 41.89 217.81 C 52.55 221.32 63.58 224.45 74.91 224.31 C 80.87 224.03 85.43 217.53 83.68 211.82 C 82.91 208.25 79.77 206.09 76.94 204.18 C 51.98 186.59 37.39 155.32 40.41 124.89 C 41.28 116.42 43.85 108.25 46.88 100.33 C 80.41 137.12 123.17 165.63 170.46 181.37 C 194.84 189.53 220.34 194.36 246.02 195.59 C 250.35 195.84 254.62 192.97 255.94 188.83 C 257.05 185.86 256.06 182.72 255.49 179.75 C 250.88 157.42 255.70 133.39 268.30 114.41 C 278.24 99.27 292.95 87.32 309.84 80.76 Z" />
</g>
</svg>
