<?xml version="1.0" encoding="UTF-8" ?>
<!DOCTYPE svg PUBLIC "-//W3C//DTD SVG 1.1//EN" "http://www.w3.org/Graphics/SVG/1.1/DTD/svg11.dtd">
<svg width="500pt" height="500pt" viewBox="0 0 500 500" version="1.1" xmlns="http://www.w3.org/2000/svg">
<g id="#000000ff">
<path fill="#000000" opacity="1.00" d=" M 81.49 40.77 C 84.63 40.22 87.81 40.00 90.99 39.99 C 197.33 40.01 303.67 39.99 410.01 40.00 C 425.05 39.96 439.89 47.16 449.14 59.02 C 456.11 67.74 459.95 78.84 459.99 89.99 C 460.00 196.66 460.00 303.33 459.99 410.00 C 460.00 425.00 452.86 439.80 441.07 449.07 C 432.34 456.10 421.19 459.96 410.00 459.99 C 303.33 460.01 196.65 460.00 89.98 459.99 C 70.52 460.11 51.78 447.78 44.18 429.88 C 41.30 423.33 39.94 416.17 39.99 409.03 C 40.01 306.66 40.00 204.30 40.00 101.94 C 40.08 93.28 39.38 84.39 42.04 76.01 C 47.12 58.05 63.08 43.80 81.49 40.77 M 67.28 70.36 C 62.31 76.00 59.80 83.57 60.00 91.06 C 60.01 197.38 59.98 303.70 60.01 410.02 C 59.99 417.64 62.97 425.23 68.27 430.72 C 73.83 436.61 81.86 440.01 89.96 439.99 C 143.30 440.02 196.65 439.99 250.00 440.00 C 250.00 393.33 250.00 346.67 250.00 300.00 C 240.00 300.00 230.00 300.00 220.00 300.00 C 220.00 276.67 220.00 253.33 220.00 230.00 C 230.00 230.00 240.00 230.00 250.00 230.00 C 250.07 213.28 249.11 196.20 253.97 179.97 C 258.66 163.11 269.21 147.40 284.75 138.83 C 299.26 130.39 316.64 128.87 333.04 130.64 C 349.26 132.30 365.44 136.25 380.01 143.71 C 379.98 162.48 380.01 181.24 380.00 200.00 C 366.41 200.31 352.74 199.26 339.20 200.78 C 335.73 201.47 330.02 202.14 330.14 206.83 C 329.83 214.54 330.08 222.27 330.00 230.00 C 347.40 230.00 364.80 229.99 382.20 230.00 C 377.53 253.33 372.87 276.67 368.20 300.00 C 355.46 300.01 342.73 300.00 330.00 300.00 C 330.00 346.67 330.00 393.33 330.00 440.00 C 356.68 439.99 383.37 440.02 410.05 439.98 C 421.33 440.10 432.33 433.25 437.06 422.98 C 439.87 417.43 440.18 411.09 440.00 404.99 C 439.99 299.98 440.02 194.97 439.99 89.96 C 440.01 81.17 436.00 72.43 429.15 66.87 C 423.60 62.17 416.26 59.83 409.02 60.00 C 302.69 60.01 196.37 59.98 90.04 60.01 C 81.43 59.96 72.86 63.78 67.28 70.36 M 286.39 162.34 C 274.92 173.71 270.70 190.34 270.11 206.04 C 269.86 220.69 270.07 235.35 270.00 250.00 C 260.00 250.00 250.00 250.00 240.00 250.00 C 240.00 260.00 240.00 270.00 240.00 280.00 C 250.00 280.00 260.00 280.00 270.00 280.00 C 270.00 333.33 270.00 386.67 270.00 440.00 C 283.33 440.00 296.67 440.00 310.00 440.00 C 310.00 386.67 310.00 333.33 310.00 280.00 C 323.93 279.99 337.87 280.01 351.80 279.99 C 353.78 269.99 355.80 260.00 357.79 250.00 C 341.86 250.00 325.93 250.00 310.00 250.00 C 310.01 236.67 309.98 223.34 310.01 210.01 C 310.05 203.78 311.61 197.43 315.19 192.27 C 318.82 186.82 324.86 183.47 331.09 181.86 C 340.52 179.43 350.36 180.16 360.00 180.00 C 360.00 172.34 360.00 164.68 360.00 157.02 C 346.05 151.51 330.87 149.58 315.94 150.16 C 305.08 150.55 294.06 154.45 286.39 162.34 Z" />
</g>
<g id="#ffffffff">
<path fill="#ffffff" opacity="1.00" d=" M 67.28 70.36 C 72.86 63.78 81.43 59.96 90.04 60.01 C 196.37 59.98 302.69 60.01 409.02 60.00 C 416.26 59.83 423.60 62.17 429.15 66.87 C 436.00 72.43 440.01 81.17 439.99 89.96 C 440.02 194.97 439.99 299.98 440.00 404.99 C 440.18 411.09 439.87 417.43 437.06 422.98 C 432.33 433.25 421.33 440.10 410.05 439.98 C 383.37 440.02 356.68 439.99 330.00 440.00 C 330.00 393.33 330.00 346.67 330.00 300.00 C 342.73 300.00 355.46 300.01 368.20 300.00 C 372.87 276.67 377.53 253.33 382.20 230.00 C 364.80 229.99 347.40 230.00 330.00 230.00 C 330.08 222.27 329.83 214.54 330.14 206.83 C 330.02 202.14 335.73 201.47 339.20 200.78 C 352.74 199.26 366.41 200.31 380.00 200.00 C 380.01 181.24 379.98 162.48 380.01 143.71 C 365.44 136.25 349.26 132.30 333.04 130.64 C 316.64 128.87 299.26 130.39 284.75 138.83 C 269.21 147.40 258.66 163.11 253.97 179.97 C 249.11 196.20 250.07 213.28 250.00 230.00 C 240.00 230.00 230.00 230.00 220.00 230.00 C 220.00 253.33 220.00 276.67 220.00 300.00 C 230.00 300.00 240.00 300.00 250.00 300.00 C 250.00 346.67 250.00 393.33 250.00 440.00 C 196.65 439.99 143.30 440.02 89.96 439.99 C 81.86 440.01 73.83 436.61 68.27 430.72 C 62.97 425.23 59.99 417.64 60.01 410.02 C 59.98 303.70 60.01 197.38 60.00 91.06 C 59.80 83.57 62.31 76.00 67.28 70.36 Z" />
<path fill="#ffffff" opacity="1.00" d=" M 286.39 162.34 C 294.06 154.45 305.08 150.55 315.94 150.16 C 330.87 149.58 346.05 151.51 360.00 157.02 C 360.00 164.68 360.00 172.34 360.00 180.00 C 350.36 180.16 340.52 179.43 331.09 181.86 C 324.86 183.47 318.82 186.82 315.19 192.27 C 311.61 197.43 310.05 203.78 310.01 210.01 C 309.98 223.34 310.01 236.67 310.00 250.00 C 325.93 250.00 341.86 250.00 357.79 250.00 C 355.80 260.00 353.78 269.99 351.80 279.99 C 337.87 280.01 323.93 279.99 310.00 280.00 C 310.00 333.33 310.00 386.67 310.00 440.00 C 296.67 440.00 283.33 440.00 270.00 440.00 C 270.00 386.67 270.00 333.33 270.00 280.00 C 260.00 280.00 250.00 280.00 240.00 280.00 C 240.00 270.00 240.00 260.00 240.00 250.00 C 250.00 250.00 260.00 250.00 270.00 250.00 C 270.07 235.35 269.86 220.69 270.11 206.04 C 270.70 190.34 274.92 173.71 286.39 162.34 Z" />
</g>
</svg>
