<?xml version="1.0" encoding="UTF-8" ?>
<!DOCTYPE svg PUBLIC "-//W3C//DTD SVG 1.1//EN" "http://www.w3.org/Graphics/SVG/1.1/DTD/svg11.dtd">
<svg width="500pt" height="500pt" viewBox="0 0 500 500" version="1.1" xmlns="http://www.w3.org/2000/svg">
<g id="#000000ff">
<path fill="#000000" opacity="1.00" d=" M 46.56 70.84 C 50.01 70.14 53.54 70.00 57.04 70.00 C 183.37 70.01 309.71 70.00 436.04 70.00 C 444.67 69.88 453.62 69.74 461.70 73.26 C 478.42 79.80 490.15 97.06 489.98 115.03 C 490.02 201.34 489.99 287.65 490.00 373.96 C 489.93 382.00 490.56 390.26 488.01 398.03 C 483.42 413.52 469.87 425.92 454.01 429.05 C 448.10 430.30 442.03 429.95 436.04 430.00 C 309.00 429.99 181.97 430.03 54.93 429.98 C 38.27 430.07 22.17 420.01 14.81 405.09 C 11.50 398.59 9.92 391.28 10.00 384.00 C 10.00 294.66 10.00 205.31 10.00 115.97 C 9.79 104.09 14.42 92.21 22.77 83.74 C 29.13 77.12 37.56 72.59 46.56 70.84 M 81.04 90.00 C 137.35 129.28 193.70 168.50 249.99 207.81 C 306.39 168.59 362.69 129.23 419.08 90.00 C 306.40 90.00 193.72 89.99 81.04 90.00 M 30.18 115.85 C 32.28 122.86 38.18 127.85 43.96 131.92 C 112.63 180.54 181.34 229.12 249.99 277.77 C 318.50 229.35 386.95 180.84 455.44 132.39 C 460.89 128.59 466.30 124.12 469.11 117.93 C 470.46 115.31 469.93 112.27 469.39 109.51 C 467.55 100.88 460.74 93.63 452.29 91.16 C 384.90 138.22 317.45 185.19 250.02 232.18 C 182.66 185.16 115.20 138.29 47.89 91.21 C 37.26 93.96 29.23 104.85 30.18 115.85 M 30.02 146.56 C 29.98 226.04 30.00 305.53 30.01 385.01 C 29.94 393.00 33.98 400.87 40.54 405.44 C 46.13 409.55 53.26 410.38 60.00 410.00 C 60.00 329.26 59.99 248.53 60.00 167.79 C 50.04 160.66 40.01 153.64 30.02 146.56 M 440.00 167.78 C 440.00 248.52 440.00 329.26 440.00 410.00 C 445.73 410.19 451.76 409.94 456.87 407.03 C 464.88 402.85 470.08 394.02 469.99 385.00 C 470.02 305.53 469.98 226.05 470.00 146.58 C 460.01 153.66 450.01 160.72 440.00 167.78 M 80.01 181.92 C 79.99 257.94 80.00 333.97 80.00 410.00 C 193.33 410.00 306.67 410.00 420.00 410.00 C 420.00 333.98 420.01 257.96 419.99 181.94 C 363.33 222.02 306.70 262.16 250.01 302.21 C 193.33 262.12 136.69 221.99 80.01 181.92 Z" />
</g>
<g id="#ffffffff">
<path fill="#ffffff" opacity="1.00" d=" M 81.04 90.00 C 193.72 89.99 306.40 90.00 419.08 90.00 C 362.69 129.23 306.39 168.59 249.99 207.81 C 193.70 168.50 137.35 129.28 81.04 90.00 Z" />
<path fill="#ffffff" opacity="1.00" d=" M 30.18 115.85 C 29.23 104.85 37.26 93.96 47.89 91.21 C 115.20 138.29 182.66 185.16 250.02 232.18 C 317.45 185.19 384.90 138.22 452.29 91.16 C 460.74 93.63 467.55 100.88 469.39 109.51 C 469.93 112.27 470.46 115.31 469.11 117.93 C 466.30 124.12 460.89 128.59 455.44 132.39 C 386.95 180.84 318.50 229.35 249.99 277.77 C 181.34 229.12 112.63 180.54 43.96 131.92 C 38.18 127.85 32.28 122.86 30.18 115.85 Z" />
<path fill="#ffffff" opacity="1.00" d=" M 30.02 146.56 C 40.01 153.64 50.04 160.66 60.00 167.79 C 59.99 248.53 60.00 329.26 60.00 410.00 C 53.26 410.38 46.13 409.55 40.54 405.44 C 33.98 400.87 29.94 393.00 30.01 385.01 C 30.00 305.53 29.98 226.04 30.02 146.56 Z" />
<path fill="#ffffff" opacity="1.00" d=" M 440.00 167.78 C 450.01 160.72 460.01 153.66 470.00 146.58 C 469.98 226.05 470.02 305.53 469.99 385.00 C 470.08 394.02 464.88 402.85 456.87 407.03 C 451.76 409.94 445.73 410.19 440.00 410.00 C 440.00 329.26 440.00 248.52 440.00 167.78 Z" />
<path fill="#ffffff" opacity="1.00" d=" M 80.01 181.92 C 136.69 221.99 193.33 262.12 250.01 302.21 C 306.70 262.16 363.33 222.02 419.99 181.94 C 420.01 257.96 420.00 333.98 420.00 410.00 C 306.67 410.00 193.33 410.00 80.00 410.00 C 80.00 333.97 79.99 257.94 80.01 181.92 Z" />
</g>
</svg>
