<?xml version="1.0" encoding="UTF-8" ?>
<!DOCTYPE svg PUBLIC "-//W3C//DTD SVG 1.1//EN" "http://www.w3.org/Graphics/SVG/1.1/DTD/svg11.dtd">
<svg width="500pt" height="500pt" viewBox="0 0 500 500" version="1.1" xmlns="http://www.w3.org/2000/svg">
<g id="#000000ff">
<path fill="#000000" opacity="1.00" d=" M 127.76 83.84 C 147.15 76.76 167.43 72.15 187.96 70.09 C 192.44 69.31 197.27 71.69 199.04 75.95 C 201.53 81.73 203.34 87.80 204.62 93.97 C 216.70 92.41 228.79 90.73 240.98 90.25 C 259.21 89.28 277.37 91.59 295.40 93.94 C 296.62 87.79 298.48 81.76 300.93 76.00 C 302.66 71.68 307.52 69.21 312.05 70.09 C 335.57 72.53 358.87 78.04 380.71 87.18 C 393.79 92.70 406.33 99.69 417.35 108.68 C 423.17 114.14 427.05 121.28 430.69 128.30 C 443.63 154.46 453.03 182.21 460.85 210.28 C 472.19 252.25 479.73 295.50 479.99 339.08 C 480.43 343.16 477.88 346.53 475.78 349.76 C 466.72 363.52 453.79 374.35 439.71 382.71 C 423.33 392.34 405.42 399.17 387.10 404.08 C 375.93 406.95 364.55 409.34 353.01 409.94 C 349.34 410.29 345.58 408.62 343.49 405.58 C 335.47 394.45 327.41 383.35 319.41 372.21 C 273.93 382.63 226.06 382.59 180.57 372.22 C 172.45 383.52 164.33 394.83 156.12 406.06 C 153.59 409.60 148.94 410.41 144.88 409.83 C 124.07 407.97 103.72 402.30 84.39 394.50 C 61.50 385.22 39.26 371.65 25.02 350.97 C 22.95 347.58 19.93 344.29 20.03 340.07 C 20.06 302.98 25.60 266.08 34.09 230.04 C 41.19 200.73 50.05 171.76 62.01 144.05 C 67.48 132.07 72.51 119.42 81.61 109.64 C 95.11 98.10 111.22 90.05 127.76 83.84 M 103.81 117.83 C 100.76 120.04 97.30 121.92 95.03 125.02 C 85.22 138.95 78.81 154.88 72.86 170.75 C 63.25 197.22 55.61 224.40 49.99 251.99 C 44.42 279.86 40.48 308.20 40.44 336.66 C 51.07 353.71 68.49 365.20 86.40 373.51 C 104.47 381.58 123.76 387.02 143.41 389.39 C 149.06 381.79 154.69 374.18 160.30 366.56 C 138.62 359.38 117.43 349.76 99.30 335.69 C 95.32 332.95 93.70 327.32 95.96 322.99 C 98.38 317.59 105.99 315.63 110.73 319.17 C 127.03 332.41 146.54 340.99 166.26 347.75 C 170.43 349.03 174.56 350.74 178.99 350.72 C 189.56 354.45 200.80 355.92 211.86 357.57 C 245.43 361.73 279.79 360.66 312.88 353.43 C 317.09 352.85 320.50 349.78 324.91 350.06 C 345.45 344.48 365.46 336.18 382.99 323.99 C 386.58 321.70 389.46 317.76 394.02 317.48 C 399.06 316.95 404.01 320.84 404.74 325.83 C 405.52 329.86 403.40 333.91 400.12 336.18 C 382.08 349.95 361.15 359.48 339.69 366.56 C 345.32 374.18 350.94 381.79 356.59 389.39 C 378.41 386.74 399.84 380.45 419.54 370.66 C 434.85 362.80 449.39 352.27 458.95 337.70 C 460.21 336.08 459.44 333.88 459.60 332.00 C 457.94 278.28 446.21 225.18 428.51 174.56 C 422.39 157.83 415.89 141.01 405.80 126.21 C 403.11 121.86 398.41 119.47 394.34 116.63 C 371.16 102.06 344.07 95.08 317.15 91.56 C 316.48 93.65 315.88 95.76 315.36 97.90 C 340.88 103.62 365.57 113.32 387.76 127.22 C 391.33 129.75 392.72 134.84 391.01 138.87 C 389.47 142.85 385.20 145.55 380.93 145.11 C 377.50 144.91 374.91 142.41 372.04 140.85 C 348.71 127.27 322.59 119.10 296.11 114.39 C 275.03 110.73 253.50 108.93 232.13 110.78 C 196.40 113.79 160.55 122.37 129.15 140.14 C 125.27 142.18 121.68 145.91 116.91 145.05 C 110.82 144.44 106.55 137.45 108.85 131.76 C 109.97 128.09 113.54 126.28 116.66 124.59 C 137.63 111.92 160.90 103.39 184.70 97.82 C 184.10 95.73 183.49 93.64 182.85 91.57 C 155.22 95.16 127.36 102.46 103.81 117.83 Z" />
<path fill="#000000" opacity="1.00" d=" M 177.46 210.72 C 188.41 208.65 200.13 211.28 209.16 217.82 C 221.39 226.52 228.78 241.12 229.81 255.98 C 231.12 272.76 224.27 290.33 210.92 300.84 C 202.57 307.53 191.59 310.87 180.93 309.75 C 170.61 308.80 160.90 303.62 153.89 296.05 C 141.83 283.21 137.37 264.09 141.56 247.08 C 145.57 229.64 159.44 213.98 177.46 210.72 M 182.18 230.20 C 177.41 230.86 172.97 233.20 169.50 236.50 C 159.72 245.79 157.59 261.31 162.66 273.52 C 165.93 281.42 172.85 288.19 181.48 289.68 C 189.07 291.07 196.93 287.68 201.96 282.01 C 212.68 270.03 212.69 249.96 201.96 237.99 C 197.09 232.48 189.57 229.13 182.18 230.20 Z" />
<path fill="#000000" opacity="1.00" d=" M 307.52 210.71 C 318.23 208.71 329.68 211.18 338.61 217.44 C 350.28 225.48 357.71 238.88 359.49 252.82 C 361.44 267.36 357.34 282.75 347.89 294.04 C 340.76 302.70 330.30 308.74 319.05 309.75 C 306.98 311.07 294.62 306.49 285.93 298.10 C 273.09 286.00 267.66 267.09 270.96 249.89 C 274.18 231.30 288.47 214.12 307.52 210.71 M 312.16 230.21 C 307.37 230.87 302.92 233.22 299.44 236.54 C 289.71 245.85 287.59 261.35 292.67 273.54 C 295.95 281.46 302.90 288.23 311.55 289.69 C 319.13 291.05 326.95 287.66 331.96 282.01 C 342.68 270.02 342.69 249.94 331.94 237.97 C 327.07 232.47 319.54 229.12 312.16 230.21 Z" />
</g>
<g id="#ffffffff">
<path fill="#ffffff" opacity="1.00" d=" M 103.81 117.83 C 127.36 102.46 155.22 95.16 182.85 91.57 C 183.49 93.64 184.10 95.73 184.70 97.82 C 160.90 103.39 137.63 111.92 116.66 124.59 C 113.54 126.28 109.97 128.09 108.85 131.76 C 106.55 137.45 110.82 144.44 116.91 145.05 C 121.68 145.91 125.27 142.18 129.15 140.14 C 160.55 122.37 196.40 113.79 232.13 110.78 C 253.50 108.93 275.03 110.73 296.11 114.39 C 322.59 119.10 348.71 127.27 372.04 140.85 C 374.91 142.41 377.50 144.91 380.93 145.11 C 385.20 145.55 389.47 142.85 391.01 138.87 C 392.72 134.84 391.33 129.75 387.76 127.22 C 365.57 113.32 340.88 103.62 315.36 97.90 C 315.88 95.76 316.48 93.65 317.15 91.56 C 344.07 95.08 371.16 102.06 394.34 116.63 C 398.41 119.47 403.11 121.86 405.80 126.21 C 415.89 141.01 422.39 157.83 428.51 174.56 C 446.21 225.18 457.94 278.28 459.60 332.00 C 459.44 333.88 460.21 336.08 458.95 337.70 C 449.39 352.27 434.85 362.80 419.54 370.66 C 399.84 380.45 378.41 386.74 356.59 389.39 C 350.94 381.79 345.32 374.18 339.69 366.56 C 361.15 359.48 382.08 349.95 400.12 336.18 C 403.40 333.91 405.52 329.86 404.74 325.83 C 404.01 320.84 399.06 316.95 394.02 317.48 C 389.46 317.76 386.58 321.70 382.99 323.99 C 365.46 336.18 345.45 344.48 324.91 350.06 C 320.50 349.78 317.09 352.85 312.88 353.43 C 279.79 360.66 245.43 361.73 211.86 357.57 C 200.80 355.92 189.56 354.45 178.99 350.72 C 174.56 350.74 170.43 349.03 166.26 347.75 C 146.54 340.99 127.03 332.41 110.73 319.17 C 105.99 315.63 98.38 317.59 95.96 322.99 C 93.70 327.32 95.32 332.95 99.30 335.69 C 117.43 349.76 138.62 359.38 160.30 366.56 C 154.69 374.18 149.06 381.79 143.41 389.39 C 123.76 387.02 104.47 381.58 86.40 373.51 C 68.49 365.20 51.07 353.71 40.44 336.66 C 40.48 308.20 44.42 279.86 49.99 251.99 C 55.61 224.40 63.25 197.22 72.86 170.75 C 78.81 154.88 85.22 138.95 95.03 125.02 C 97.30 121.92 100.76 120.04 103.81 117.83 M 177.46 210.72 C 159.44 213.98 145.57 229.64 141.56 247.08 C 137.37 264.09 141.83 283.21 153.89 296.05 C 160.90 303.62 170.61 308.80 180.93 309.75 C 191.59 310.87 202.57 307.53 210.92 300.84 C 224.27 290.33 231.12 272.76 229.81 255.98 C 228.78 241.12 221.39 226.52 209.16 217.82 C 200.13 211.28 188.41 208.65 177.46 210.72 M 307.52 210.71 C 288.47 214.12 274.18 231.30 270.96 249.89 C 267.66 267.09 273.09 286.00 285.93 298.10 C 294.62 306.49 306.98 311.07 319.05 309.75 C 330.30 308.74 340.76 302.70 347.89 294.04 C 357.34 282.75 361.44 267.36 359.49 252.82 C 357.71 238.88 350.28 225.48 338.61 217.44 C 329.68 211.18 318.23 208.71 307.52 210.71 Z" />
<path fill="#ffffff" opacity="1.00" d=" M 182.18 230.20 C 189.57 229.13 197.09 232.48 201.96 237.99 C 212.69 249.96 212.68 270.03 201.96 282.01 C 196.93 287.68 189.07 291.07 181.48 289.68 C 172.85 288.19 165.93 281.42 162.66 273.52 C 157.59 261.31 159.72 245.79 169.50 236.50 C 172.97 233.20 177.41 230.86 182.18 230.20 Z" />
<path fill="#ffffff" opacity="1.00" d=" M 312.16 230.21 C 319.54 229.12 327.07 232.47 331.94 237.97 C 342.69 249.94 342.68 270.02 331.96 282.01 C 326.95 287.66 319.13 291.05 311.55 289.69 C 302.90 288.23 295.95 281.46 292.67 273.54 C 287.59 261.35 289.71 245.85 299.44 236.54 C 302.92 233.22 307.37 230.87 312.16 230.21 Z" />
</g>
</svg>
